<?xml version="1.0" standalone="no"?>
<!DOCTYPE svg PUBLIC "-//W3C//DTD SVG 20010904//EN"
 "http://www.w3.org/TR/2001/REC-SVG-20010904/DTD/svg10.dtd">
<svg version="1.0" xmlns="http://www.w3.org/2000/svg"
 width="402.000000pt" height="67.000000pt" viewBox="0 0 402.000000 67.000000"
 preserveAspectRatio="xMidYMid meet">

<g transform="translate(0.000000,67.000000) scale(0.100000,-0.100000)"
fill="#000000" stroke="none">
<path d="M0 335 l0 -335 2010 0 2010 0 0 335 0 335 -2010 0 -2010 0 0 -335z
m320 150 c61 -80 113 -145 116 -145 2 0 4 41 4 90 l0 90 -30 0 c-30 0 -30 1
-30 55 l0 55 120 0 120 0 0 -55 c0 -54 0 -55 -30 -55 l-30 0 0 -240 0 -240
-52 0 -53 1 -107 142 c-59 78 -114 151 -122 162 -14 18 -15 11 -16 -87 l0
-108 30 0 c30 0 30 -1 30 -55 l0 -55 -120 0 -120 0 0 55 c0 54 0 55 30 55 l30
0 0 185 0 185 -30 0 c-30 0 -30 1 -30 55 l0 55 90 0 89 0 111 -145z m3312 -20
l3 -164 35 22 c32 20 33 22 13 25 -21 3 -23 9 -23 63 l0 59 120 0 120 0 0 -60
c0 -54 -2 -60 -21 -60 -11 0 -40 -14 -64 -31 l-44 -32 52 -68 c42 -55 57 -68
80 -69 24 0 27 -4 27 -34 0 -32 2 -35 28 -33 21 2 27 -2 27 -18 0 -23 -34 -33
-46 -13 -6 10 -9 10 -9 1 0 -9 -20 -13 -64 -13 l-64 0 -67 86 c-65 82 -68 85
-86 68 -25 -22 -24 -44 1 -44 18 0 20 -7 20 -55 l0 -55 -100 0 -100 0 0 55 c0
42 3 55 15 55 13 0 15 27 15 185 l0 185 -25 0 c-24 0 -25 3 -25 55 l0 55 90 0
90 0 2 -165z m-2722 -28 c46 -31 72 -85 78 -159 l4 -58 -126 0 -126 0 0 -32
c0 -41 25 -68 63 -68 32 0 67 24 67 47 0 9 16 13 59 13 l59 0 -8 -36 c-17 -73
-81 -114 -177 -114 -100 1 -175 51 -203 136 -7 20 -10 66 -8 104 5 98 54 161
146 191 46 15 131 3 172 -24z m298 -24 l3 -53 -30 0 c-17 0 -31 -1 -31 -3 0
-2 13 -38 28 -80 l28 -78 33 118 c18 65 35 126 37 136 5 14 14 17 42 15 l35
-3 45 -134 45 -134 17 56 c33 107 33 107 5 107 -24 0 -25 3 -25 55 l0 55 90 0
90 0 0 -54 c0 -43 -4 -55 -18 -58 -13 -4 -29 -44 -62 -161 l-45 -157 -67 0
-66 0 -28 82 -28 83 -24 -82 -25 -83 -68 0 -67 0 -52 155 c-43 128 -55 155
-71 155 -17 0 -19 8 -19 60 l0 61 113 -3 112 -3 3 -52z m647 43 c19 -8 35 -11
35 -5 0 5 25 9 55 9 l55 0 0 -65 0 -65 -51 0 c-43 0 -56 5 -75 26 -30 32 -89
32 -89 -1 0 -15 14 -25 60 -43 33 -12 75 -30 94 -40 92 -46 95 -184 5 -227
-44 -21 -122 -19 -167 4 -29 15 -37 16 -37 5 0 -10 -15 -14 -55 -14 l-55 0 0
75 0 75 50 0 c45 0 52 -3 60 -25 19 -49 115 -65 115 -20 0 21 -11 28 -89 56
-33 12 -75 36 -95 55 -31 28 -36 39 -36 77 0 104 114 167 220 123z m385 -41
c0 -53 -1 -55 -26 -55 -17 0 -24 -5 -22 -12 3 -7 15 -44 28 -83 l23 -70 19 70
c58 210 55 205 93 205 l34 0 43 -130 c23 -71 45 -130 48 -130 3 0 15 31 26 69
l21 70 -26 3 c-24 3 -26 6 -26 58 l0 55 93 3 92 3 0 -55 c0 -44 -3 -55 -17
-58 -13 -2 -29 -43 -64 -158 l-46 -155 -66 -3 -65 -3 -28 83 -28 83 -25 -83
-25 -82 -67 0 -67 0 -52 155 c-43 128 -55 155 -71 155 -17 0 -19 8 -19 60 l0
60 110 0 110 0 0 -55z m693 41 c21 -8 48 -22 59 -33 33 -29 58 -93 58 -150 l0
-53 -125 0 -125 0 0 -30 c0 -76 103 -96 130 -24 9 21 15 24 65 24 64 0 67 -8
34 -76 -56 -116 -262 -114 -343 4 -52 74 -46 210 12 277 58 67 150 91 235 61z
m424 -1 c21 -9 46 -23 57 -33 31 -28 56 -93 56 -149 l0 -53 -125 0 -125 0 0
-30 c0 -77 103 -96 130 -24 9 23 14 25 62 22 52 -3 53 -3 50 -33 -3 -34 -27
-70 -64 -98 -19 -14 -48 -21 -100 -24 -62 -4 -80 -1 -118 19 -26 13 -58 41
-75 66 -25 37 -30 55 -33 117 -3 61 0 82 18 120 47 96 168 141 267 100z"/>
<path d="M3965 70 c3 -5 8 -10 11 -10 2 0 4 5 4 10 0 6 -5 10 -11 10 -5 0 -7
-4 -4 -10z"/>
<path d="M783 369 c-23 -8 -43 -38 -43 -63 0 -13 13 -16 65 -16 71 0 82 12 50
57 -17 25 -43 33 -72 22z"/>
<path d="M2842 370 c-18 -8 -42 -45 -42 -66 0 -2 29 -4 65 -4 58 0 65 2 65 19
0 11 -12 29 -26 40 -30 23 -30 23 -62 11z"/>
<path d="M3245 355 c-43 -42 -34 -55 40 -55 58 0 65 2 65 19 0 21 -44 61 -67
61 -8 0 -25 -11 -38 -25z"/>
</g>
</svg>
